# xmcd
#
# Track frame offsets:
#	182
#	14870
#	27307
#	38887
#	55952
#	72635
#	80197
#	99065
#	124290
#	150122
#	159002
#	181152
#	206030
#	225357
#	244935
#
# Disc length: 3414
#
# Revision: 5
# Processed by: cddbd v1.5.1PL0 Copyright (c) Steve Scherf et al.
# Submitted via: CDex 1.51
# Normalized: r4:DSETVAR1
#
DISCID=bf0d540f
DTITLE=Various Artist - Blues Blues Blues - CD 2
DYEAR=1993
DGENRE=Blues
TTITLE0=The Animals - Boom Boom
TTITLE1=Muddy Waters - I'm Your Hoochie Coochie Man
TTITLE2=Sonny Boy Williamson - Don't Start Me To Talkin'
TTITLE3=Charlie Musselwhite - Mean Ole Frisco
TTITLE4=Lonnie Brooks - Jealous Man
TTITLE5=The Yardbirds - The Train Keept
TTITLE6=Steve Stills and Al Kooper - You Don't Love Me
TTITLE7=Albert King - Red House
TTITLE8=The Hot Attacks - My Pretty Baby
TTITLE9=Fleetwood Mac - Hellhound On My Trail
TTITLE10=The Vaughan Brothers - Tick Tock
TTITLE11=Screamin' Jay Hawkins - Contipation Blues
TTITLE12=The Steve Miller Band - Sweet Maree
TTITLE13=George Thorogood and The Destroyers - Who Do You Lave
TTITLE14=Barry Goldberg and Mike Bloomfield - Jimi The Fox
EXTD=YEAR: 1993
EXTT0=
EXTT1=
EXTT2=
EXTT3=
EXTT4=
EXTT5=
EXTT6=
EXTT7=
EXTT8=
EXTT9=
EXTT10=
EXTT11=
EXTT12=
EXTT13=
EXTT14=
PLAYORDER=
